<?xml version="1.0" standalone="no"?>
<!DOCTYPE svg PUBLIC "-//W3C//DTD SVG 20010904//EN"
 "http://www.w3.org/TR/2001/REC-SVG-20010904/DTD/svg10.dtd">
<svg version="1.0" xmlns="http://www.w3.org/2000/svg"
 width="700.000000pt" height="700.000000pt" viewBox="0 0 700.000000 700.000000"
 preserveAspectRatio="xMidYMid meet">
<metadata>
Created by potrace 1.14, written by Peter Selinger 2001-2017
</metadata>
<g transform="translate(0.000000,700.000000) scale(0.100000,-0.100000)"
fill="#000000" stroke="none">
<path d="M3427 6714 c-1 -1 -60 -4 -132 -8 -71 -3 -139 -8 -150 -10 -11 -2
-47 -7 -80 -10 -33 -4 -87 -12 -120 -17 -33 -6 -75 -13 -94 -15 -19 -3 -37 -6
-41 -9 -4 -2 -22 -7 -41 -10 -115 -19 -367 -94 -544 -162 -142 -55 -423 -195
-563 -282 -133 -83 -317 -213 -377 -268 -11 -10 -47 -40 -80 -68 -118 -99
-335 -323 -435 -451 -194 -245 -375 -545 -475 -784 -15 -36 -33 -78 -40 -95
-87 -199 -173 -514 -214 -785 -31 -202 -36 -282 -36 -535 0 -231 10 -389 30
-495 2 -14 7 -45 10 -70 4 -25 18 -98 31 -164 102 -485 319 -962 620 -1361
152 -202 374 -435 513 -541 184 -138 434 -240 666 -271 73 -10 3160 -11 3230
-1 334 47 620 188 860 425 445 441 765 996 923 1603 32 122 50 203 58 260 3
19 7 41 10 49 2 7 7 41 10 75 3 33 8 64 10 67 17 29 26 549 12 724 -18 222
-64 471 -130 690 -30 99 -80 251 -97 290 -106 249 -158 355 -248 508 -384 647
-950 1143 -1648 1443 -172 74 -419 154 -585 189 -150 32 -303 58 -410 70 -83
9 -436 24 -443 19z m298 -598 c453 -39 861 -166 1240 -385 488 -282 888 -709
1145 -1221 107 -214 204 -494 245 -705 5 -22 9 -44 10 -50 5 -21 16 -92 21
-130 3 -22 7 -51 9 -65 18 -98 24 -402 12 -575 -7 -101 -9 -118 -28 -235 -18
-115 -20 -124 -30 -165 -6 -22 -12 -47 -14 -55 -21 -103 -87 -309 -144 -445
-35 -84 -162 -330 -213 -411 -64 -104 -196 -284 -270 -369 -75 -87 -211 -220
-268 -262 -78 -57 -210 -118 -315 -144 l-90 -23 -1515 0 c-833 0 -1537 3
-1565 6 -146 18 -302 84 -418 178 -84 68 -235 226 -329 345 -220 280 -384 589
-487 920 -62 196 -85 302 -115 515 -26 185 -26 519 0 725 50 396 175 766 382
1125 25 43 160 246 181 273 6 6 34 41 63 77 352 437 841 775 1363 943 157 51
355 97 480 112 28 4 57 8 65 10 8 2 65 7 125 11 61 3 111 7 112 8 5 4 275 -2
348 -8z"/>
<path d="M3320 5537 c-3 -3 -39 -7 -82 -11 -42 -3 -82 -8 -90 -11 -7 -2 -29
-6 -48 -9 -32 -5 -48 -8 -105 -20 -95 -19 -330 -94 -384 -122 -14 -8 -30 -14
-34 -14 -14 0 -189 -90 -277 -143 -147 -87 -310 -216 -445 -352 -72 -71 -144
-148 -160 -170 -17 -22 -32 -42 -36 -45 -12 -11 -127 -179 -161 -235 -95 -159
-220 -452 -244 -572 -1 -6 -7 -27 -13 -45 -9 -30 -35 -160 -46 -233 -3 -16 -8
-48 -11 -70 -11 -66 -13 -455 -3 -530 8 -65 26 -173 36 -220 2 -11 6 -31 9
-45 13 -61 59 -213 91 -300 117 -314 304 -602 538 -833 78 -76 115 -92 215
-92 73 0 92 4 136 27 84 44 139 118 151 205 9 58 9 57 0 113 -10 59 -37 103
-121 192 -261 275 -422 618 -472 1008 -12 93 -10 330 4 425 29 205 81 373 167
546 270 545 783 901 1397 968 82 9 362 6 378 -4 20 -13 132 -6 183 11 35 12
67 33 102 68 112 114 117 277 11 403 -30 35 -108 79 -156 87 -19 3 -48 9 -65
12 -35 7 -459 17 -465 11z"/>
<path d="M4843 4936 c-44 -21 -153 -125 -624 -596 -426 -426 -576 -569 -588
-565 -33 14 -181 17 -248 6 -219 -38 -417 -226 -468 -445 -42 -181 -2 -363
112 -503 26 -32 54 -63 62 -69 9 -7 30 -24 46 -38 27 -23 105 -66 160 -87 123
-48 320 -38 447 23 167 80 288 233 328 414 14 63 15 177 1 234 l-10 45 573
575 c387 388 579 588 591 615 11 22 21 70 23 107 6 90 -18 157 -78 218 -61 62
-109 83 -200 87 -63 3 -83 -1 -127 -21z"/>
<path d="M5392 3759 c-61 -30 -102 -71 -138 -139 -20 -38 -21 -66 -11 -375 3
-93 1 -195 -4 -225 -5 -30 -11 -73 -14 -95 -2 -22 -14 -78 -25 -125 -73 -301
-224 -576 -445 -808 -75 -79 -102 -124 -112 -182 -10 -66 -10 -80 3 -132 32
-125 128 -206 258 -215 99 -7 163 18 241 95 299 293 512 666 615 1072 35 138
47 210 65 385 5 47 6 349 1 385 -2 14 -7 57 -10 95 -23 232 -230 361 -424 264z"/>
</g>
</svg>
